<?xml version="1.0" encoding="UTF-8"?>
<svg version="1.1" xmlns="http://www.w3.org/2000/svg" width="1536" height="1024">
<path d="M0 0 C506.88 0 1013.76 0 1536 0 C1536 337.92 1536 675.84 1536 1024 C1029.12 1024 522.24 1024 0 1024 C0 686.08 0 348.16 0 0 Z " fill="#000000" transform="translate(0,0)"/>
<path d="M0 0 C0.95177628 -0.00571014 1.90355255 -0.01142029 2.88417053 -0.01730347 C3.92680054 -0.01842133 4.96943054 -0.01953918 6.0436554 -0.02069092 C7.14315018 -0.02565582 8.24264496 -0.03062073 9.37545776 -0.03573608 C13.02178061 -0.05036975 16.66805993 -0.0571624 20.31440735 -0.06268311 C22.84686281 -0.06843439 25.37931825 -0.07419212 27.91177368 -0.07995605 C32.54754902 -0.08912564 37.18331129 -0.09542399 41.81909341 -0.09845281 C48.62958187 -0.10292743 55.43986902 -0.12044771 62.25029629 -0.1494534 C68.15827592 -0.17373681 74.06620582 -0.18140023 79.97423744 -0.18312836 C82.48240567 -0.18615246 84.9905731 -0.19417279 87.49870872 -0.20731354 C91.01254291 -0.22440632 94.52589002 -0.22248535 98.03974915 -0.21600342 C99.072258 -0.2252182 100.10476685 -0.23443298 101.16856384 -0.243927 C107.85877357 -0.20535184 113.87156864 0.38048213 119.3183136 4.68341064 C129.93826526 18.15027706 131.00247469 35.31514218 133.98106384 51.73965454 C134.96574368 57.16719549 135.95789282 62.59336677 136.9511261 68.01934814 C137.25301598 69.66862053 137.25301598 69.66862053 137.56100464 71.35121155 C139.38600018 81.29782436 141.26666803 91.23338061 143.1683197 101.16558838 C143.67324167 103.8046988 144.1761534 106.4441845 144.67842102 109.08380127 C146.01585022 116.10820103 147.35874322 123.13073814 148.75190735 130.14434814 C153.52555526 154.49965424 153.52555526 154.49965424 149.6776886 162.76544189 C148.5330011 163.94106689 148.5330011 163.94106689 147.3651886 165.14044189 C146.3442511 166.19231689 146.3442511 166.19231689 145.3026886 167.26544189 C138.89903283 171.35288175 130.97672447 174.71524242 123.3651886 173.14044189 C118.6799153 166.59530505 115.30163217 159.27651967 111.7401886 152.07794189 C110.91067688 150.41795166 110.91067688 150.41795166 110.06440735 148.72442627 C106.88176019 142.32694788 103.76859944 135.90010273 100.70219421 129.44610596 C93.70175711 114.71924637 86.42287693 100.13719008 79.11103821 85.56347656 C77.44166267 82.23505933 75.77461438 78.90547695 74.1073761 75.57598877 C69.59507015 66.55801505 69.59507015 66.55801505 65.06037903 57.55130005 C63.8610094 55.13807284 62.69562591 52.72313255 61.55769348 50.28158569 C61.10378424 49.32648527 61.10378424 49.32648527 60.64070511 48.35208988 C59.79871334 46.57753841 58.97069258 44.79637739 58.14356995 43.0148468 C56.17408459 39.83155972 54.75576059 38.65416446 51.3651886 37.14044189 C46.68708302 36.62065239 44.64815932 36.50151225 40.42378235 38.60528564 C36.38541486 41.95254044 34.64602544 45.47780901 32.3651886 50.14044189 C31.87808411 51.10304932 31.39097961 52.06565674 30.88911438 53.05743408 C29.39706497 56.01667281 27.92156948 58.98337588 26.45075989 61.95318604 C24.32593805 66.23436873 22.18379992 70.50691742 20.0448761 74.78106689 C17.17624388 80.51345747 14.30986358 86.24687635 11.4589386 91.98809814 C4.88650281 105.20864042 -1.88105651 118.31363701 -8.88041687 131.31329346 C-13.62259332 139.7954998 -13.62259332 139.7954998 -13.6348114 149.14044189 C-11.59509131 152.64260281 -9.56629517 154.8299473 -5.6348114 156.14044189 C-2.99917335 156.22974107 -0.38983735 156.26332082 2.24555969 156.25054932 C3.90753684 156.25109196 5.56951397 156.25167896 7.23149109 156.25230408 C8.11236767 156.25087591 8.99324425 156.24944775 9.90081406 156.2479763 C14.56347685 156.24445836 19.22601869 156.27025223 23.8886261 156.29083252 C29.82297365 156.31518027 35.75696992 156.33085563 41.69136047 156.31549072 C46.48674663 156.3038371 51.28126136 156.32120294 56.07651138 156.35793495 C57.9033127 156.3665558 59.73019732 156.3644617 61.5569725 156.35143089 C64.11429525 156.3345513 66.66886689 156.35471427 69.22602844 156.38336182 C69.97945023 156.36956985 70.73287201 156.35577789 71.50912476 156.34156799 C74.385679 156.40401867 76.67596191 156.56465728 78.93479443 158.45170116 C81.20705406 161.12647265 83.03673484 163.99869727 84.46284485 167.19903564 C84.78962219 167.91510986 85.11639954 168.63118408 85.45307922 169.36895752 C85.77470032 170.09792236 86.09632141 170.82688721 86.4276886 171.57794189 C87.08232319 173.03628628 87.73985183 174.4933352 88.40034485 175.94903564 C88.71761536 176.65270264 89.03488586 177.35636963 89.36177063 178.08135986 C90.35445798 180.11842193 91.47919034 182.00163308 92.67378235 183.92559814 C94.3651886 187.14044189 94.3651886 187.14044189 94.15815735 189.1975708 C91.83250792 194.89569832 82.76546016 197.36087499 77.39253235 199.62091064 C75.13838149 200.55234379 72.88057655 201.47392155 70.61982727 202.38922119 C68.30155994 203.32839914 65.98841047 204.27938433 63.67573547 205.23223877 C62.18578651 205.84166098 60.69556125 206.45040821 59.20503235 207.05841064 C58.52254929 207.33863571 57.84006622 207.61886078 57.13690186 207.90757751 C50.73854374 210.48900834 44.63866442 212.44050102 37.6776886 212.57794189 C36.58069641 212.61790283 35.48370422 212.65786377 34.35346985 212.69903564 C23.71170949 211.86964353 13.69690143 204.66663119 4.8026886 199.32794189 C3.53465006 198.57484933 2.26616735 197.82250422 0.99726868 197.07086182 C-1.60725688 195.52636398 -4.20912711 193.97754191 -6.80863953 192.42462158 C-10.42844069 190.26229434 -14.05385482 188.1095759 -17.6816864 185.96075439 C-21.05120811 183.96492177 -24.42055775 181.96882828 -27.78788757 179.96929932 C-34.30756769 176.09978626 -40.84376809 172.26046987 -47.397995 168.44976807 C-51.3091295 166.17568853 -55.21566425 163.89380877 -59.12065125 161.60919189 C-60.69478916 160.68959452 -62.2704055 159.77251802 -63.84819031 158.85919189 C-77.1256811 151.1587025 -77.1256811 151.1587025 -80.6348114 144.14044189 C-81.60423215 135.82488527 -79.82607942 129.94237844 -76.0098114 122.64044189 C-75.52053162 121.66268799 -75.03125183 120.68493408 -74.52714539 119.67755127 C-72.92038286 116.48564748 -71.28029027 113.31254101 -69.6348114 110.14044189 C-68.49247181 107.91148659 -67.35055035 105.68231695 -66.20903015 103.45294189 C-63.280437 97.75790923 -60.32029036 92.07993751 -57.34721375 86.40802002 C-55.72668998 83.31576309 -54.11121246 80.22094142 -52.49809265 77.12481689 C-50.52473906 73.33735944 -48.54965358 69.55081859 -46.5723114 65.76544189 C-44.0575227 60.95103358 -41.54648764 56.13467738 -39.03617859 51.31793213 C-37.04829106 47.50527068 -35.05756865 43.69409357 -33.06645203 39.88311768 C-31.66487875 37.19804364 -30.26695538 34.51109152 -28.8691864 31.82403564 C-26.48459583 27.24829473 -24.07032337 22.68925355 -21.6348114 18.14044189 C-21.08309265 17.10016846 -20.5313739 16.05989502 -19.9629364 14.98809814 C-15.45989797 6.9383117 -9.7679403 0.03511257 0 0 Z " fill="#A7A7A7" transform="translate(317.6348114013672,408.85955810546875)"/>
<path d="M0 0 C7.26 0 14.52 0 22 0 C22 34.98 22 69.96 22 106 C14.74 106 7.48 106 0 106 C-0.495 101.545 -0.495 101.545 -1 97 C-1.40089844 97.54269531 -1.80179688 98.08539062 -2.21484375 98.64453125 C-6.53836544 104.08569801 -10.08171895 106.89350474 -17 108 C-27.08427034 109.076564 -34.89601114 106.99257955 -43.25 101.3125 C-50.83267261 95.18215379 -55.16526733 86.47426925 -57 77 C-58.40436312 62.38554217 -57.17033143 47.99837015 -48 36 C-42.22201773 29.5261747 -35.48241621 25.65411362 -26.82421875 24.62109375 C-19.76383251 24.36389989 -12.98470636 24.97319083 -7 29 C-5.02 31.31 -3.04 33.62 -1 36 C-0.67 24.12 -0.34 12.24 0 0 Z " fill="#A8A9A9" transform="translate(1097,464)"/>
<path d="M0 0 C2.38510333 2.09889093 4.4203311 4.23236871 6 7 C6 7.99 6 8.98 6 10 C6.66 10 7.32 10 8 10 C8.2784375 8.948125 8.2784375 8.948125 8.5625 7.875 C11.17148861 2.65702279 16.31618941 -1.47435235 21.796875 -3.5234375 C30.20878776 -5.34303565 38.39591673 -4.92116772 45.87890625 -0.546875 C51.79344885 3.76649309 55.21449025 8.84911578 57 16 C57.40344107 20.71186342 57.34956427 25.39887865 57.29296875 30.125 C57.28736341 31.48119637 57.28309775 32.83739887 57.28010559 34.19360352 C57.26873039 37.73811035 57.23932807 41.28223988 57.20599365 44.82659912 C57.17513325 48.45335794 57.16156638 52.08017857 57.14648438 55.70703125 C57.11444986 62.80485529 57.06174336 69.90236309 57 77 C50.07 77 43.14 77 36 77 C35.98541748 75.49171631 35.97083496 73.98343262 35.95581055 72.42944336 C35.8977091 66.81771489 35.8204761 61.20638269 35.73754883 55.5949707 C35.70435534 53.16925502 35.67630616 50.74346314 35.65356445 48.31762695 C35.61991669 44.82470316 35.56759369 41.33247415 35.51171875 37.83984375 C35.50532883 36.76041 35.4989389 35.68097626 35.49235535 34.5688324 C35.36264713 27.88145162 35.03564896 22.13191689 30.15234375 17.09375 C25.98358661 14.97532532 21.53151611 15.26153071 17 16 C14.10316132 18.2015974 12.60702769 19.78594462 11 23 C10.88068952 24.75590877 10.82280132 26.51614607 10.79467773 28.27587891 C10.77473251 29.3768692 10.75478729 30.4778595 10.73423767 31.61221313 C10.71752518 32.80494843 10.70081268 33.99768372 10.68359375 35.2265625 C10.6524221 37.05349136 10.6524221 37.05349136 10.62062073 38.91732788 C10.55507416 42.8198262 10.49621645 46.7223935 10.4375 50.625 C10.39431965 53.26563222 10.35070552 55.90625739 10.30664062 58.546875 C10.19938752 65.03117875 10.09813447 71.51555209 10 78 C2.74 78 -4.52 78 -12 78 C-12.01458252 76.43113037 -12.02916504 74.86226074 -12.04418945 73.24584961 C-12.10227673 67.41049713 -12.17950995 61.5755263 -12.26245117 55.74047852 C-12.29565129 53.21775519 -12.32369842 50.69495846 -12.34643555 48.17211914 C-12.38007096 44.54020994 -12.43239367 40.90897043 -12.48828125 37.27734375 C-12.49467117 36.15416245 -12.5010611 35.03098114 -12.50764465 33.87376404 C-12.62021055 27.84248252 -13.02150318 23.29974296 -16 18 C-20.02268591 14.9725316 -25.19545652 15.36147072 -30 16 C-33.64991679 18.12911813 -35.42264253 20.13677857 -37 24 C-37.32479457 26.54321988 -37.32479457 26.54321988 -37.31884766 29.31933594 C-37.33871735 30.38013367 -37.35858704 31.4409314 -37.37905884 32.53387451 C-37.39638565 34.24187225 -37.39638565 34.24187225 -37.4140625 35.984375 C-37.43342865 37.15510559 -37.4527948 38.32583618 -37.4727478 39.53204346 C-37.53252707 43.27128819 -37.578923 47.01056374 -37.625 50.75 C-37.66318124 53.28516968 -37.70223305 55.8203264 -37.7421875 58.35546875 C-37.83822752 64.57020731 -37.92226518 70.7850066 -38 77 C-45.26 77 -52.52 77 -60 77 C-60 50.93 -60 24.86 -60 -2 C-53.4 -2 -46.8 -2 -40 -2 C-40 1.3 -40 4.6 -40 8 C-39.34 8 -38.68 8 -38 8 C-37.74734375 7.40445312 -37.4946875 6.80890625 -37.234375 6.1953125 C-34.67565093 1.64467032 -29.82505996 -1.08747002 -25.25 -3.375 C-16.39242534 -5.07837974 -7.84565649 -4.78529403 0 0 Z " fill="#A9AAA9" transform="translate(673,493)"/>
<path d="M0 0 C4.13265653 2.39653228 6.8298042 4.87653311 9.4375 8.875 C9.4375 9.865 9.4375 10.855 9.4375 11.875 C10.0975 11.875 10.7575 11.875 11.4375 11.875 C11.7159375 10.823125 11.7159375 10.823125 12 9.75 C14.66953813 4.41092374 19.09576571 1.13126849 24.625 -1 C32.89183853 -3.34789462 41.34397058 -3.11541805 49.18359375 0.49609375 C56.83719267 5.1784515 60.26651282 12.41732571 62.4375 20.875 C62.93129451 25.47550137 62.90687117 30.01418397 62.828125 34.63671875 C62.82246521 35.90852493 62.81680542 37.18033112 62.81097412 38.49067688 C62.79251765 41.83323965 62.75673624 45.17465824 62.7121582 48.51690674 C62.67086129 51.94281252 62.65289055 55.36883767 62.6328125 58.79492188 C62.58893473 65.4886312 62.52000455 72.18165987 62.4375 78.875 C55.1775 78.875 47.9175 78.875 40.4375 78.875 C40.42291748 77.30089355 40.40833496 75.72678711 40.39331055 74.10498047 C40.33527403 68.25660657 40.25804047 62.40861551 40.17504883 56.56054688 C40.14182486 54.03098775 40.11378511 51.50135495 40.09106445 48.97167969 C40.05747296 45.33236333 40.00515246 41.69372066 39.94921875 38.0546875 C39.94282883 36.92634491 39.9364389 35.79800232 39.92985535 34.63546753 C39.82503493 29.0187891 39.70952457 24.67507921 36.4375 19.875 C32.12921382 16.73259253 26.51385002 17.14442737 21.4375 17.875 C17.07736677 20.90039857 15.72528061 23.83576782 14.4375 28.875 C14.11052337 32.71424347 14.06530277 36.54679616 14.0234375 40.3984375 C14.00407135 41.49975006 13.9847052 42.60106262 13.9647522 43.73574829 C13.90515072 47.24042099 13.85864838 50.74512688 13.8125 54.25 C13.77430238 56.63152445 13.73524961 59.01303534 13.6953125 61.39453125 C13.59946496 67.22124362 13.51536186 73.04802065 13.4375 78.875 C6.5075 78.875 -0.4225 78.875 -7.5625 78.875 C-7.57708252 77.33642334 -7.59166504 75.79784668 -7.60668945 74.21264648 C-7.66478368 68.4891061 -7.74201679 62.76595452 -7.82495117 57.04272461 C-7.85814804 54.56850508 -7.88619618 52.09421078 -7.90893555 49.61987305 C-7.94257701 46.05745666 -7.99489987 42.49572228 -8.05078125 38.93359375 C-8.05717117 37.83228622 -8.0635611 36.7309787 -8.07014465 35.59629822 C-8.18396076 29.6131498 -8.62254881 25.13753982 -11.5625 19.875 C-15.22123842 17.08260134 -19.49073717 17.40530239 -23.9296875 17.5 C-26.80409659 17.71418552 -26.80409659 17.71418552 -29.625 19.9375 C-34.0304959 26.61680024 -33.88997017 33.51343906 -33.9765625 41.27734375 C-33.99592865 42.35504532 -34.0152948 43.43274689 -34.0352478 44.54310608 C-34.09475755 47.9661583 -34.14131456 51.38924466 -34.1875 54.8125 C-34.22570608 57.14129025 -34.26475933 59.47006676 -34.3046875 61.79882812 C-34.40202103 67.49081167 -34.48181781 73.18265889 -34.5625 78.875 C-41.4925 78.875 -48.4225 78.875 -55.5625 78.875 C-55.5625 52.805 -55.5625 26.735 -55.5625 -0.125 C-49.2925 -0.125 -43.0225 -0.125 -36.5625 -0.125 C-36.2325 3.175 -35.9025 6.475 -35.5625 9.875 C-34.386875 8.2971875 -34.386875 8.2971875 -33.1875 6.6875 C-24.7361954 -2.98236479 -11.69200163 -5.36682042 0 0 Z " fill="#AAAAAA" transform="translate(800.5625,491.125)"/>
<path d="M0 0 C1.5631897 0.00785522 1.5631897 0.00785522 3.15795898 0.01586914 C4.28266602 0.0190918 5.40737305 0.02231445 6.56616211 0.02563477 C7.75016602 0.03401367 8.93416992 0.04239258 10.15405273 0.05102539 C11.34192383 0.05553711 12.52979492 0.06004883 13.75366211 0.06469727 C16.69967499 0.07652864 19.64558954 0.09301252 22.59155273 0.11352539 C27.68511477 11.6500924 31.78858678 23.55794146 36.02905273 35.42602539 C36.82429753 37.64575899 37.6197918 39.86540322 38.41552734 42.08496094 C39.62599681 45.4618573 40.83610413 48.83888049 42.0448761 52.21638489 C44.63304904 59.44737296 47.23582158 66.67292248 49.84936523 73.89477539 C50.81318337 76.56235305 51.7766766 79.23004777 52.74002075 81.89779663 C53.34572728 83.5731917 53.95254579 85.24818519 54.56051636 86.92276001 C55.39832611 89.23128462 56.23176609 91.54134239 57.06420898 93.85180664 C57.30813385 94.52034668 57.55205872 95.18888672 57.80337524 95.87768555 C59.03840006 99.31965499 59.86829654 102.49724441 60.59155273 106.11352539 C52.67155273 106.11352539 44.75155273 106.11352539 36.59155273 106.11352539 C35.60155273 103.22602539 34.61155273 100.33852539 33.59155273 97.36352539 C33.27831055 96.46021484 32.96506836 95.5569043 32.64233398 94.6262207 C32.39870117 93.9053125 32.15506836 93.1844043 31.90405273 92.44165039 C31.65268555 91.70849609 31.40131836 90.9753418 31.14233398 90.2199707 C30.59155273 88.11352539 30.59155273 88.11352539 30.59155273 84.11352539 C17.39155273 84.11352539 4.19155273 84.11352539 -9.40844727 84.11352539 C-10.39844727 87.74352539 -11.38844727 91.37352539 -12.40844727 95.11352539 C-13.65274439 98.82144759 -15.02942914 102.4519945 -16.40844727 106.11352539 C-23.99844727 106.11352539 -31.58844727 106.11352539 -39.40844727 106.11352539 C-37.15838858 95.98826133 -37.15838858 95.98826133 -35.67529297 91.80126953 C-35.34295151 90.85496674 -35.01061005 89.90866394 -34.66819763 88.9336853 C-34.31048782 87.93213409 -33.95277802 86.93058289 -33.58422852 85.89868164 C-33.20553116 84.8252652 -32.8268338 83.75184875 -32.43666077 82.64590454 C-31.20324277 79.1540968 -29.96230806 75.66501647 -28.72094727 72.17602539 C-27.86657825 69.76380116 -27.01257758 67.35144644 -26.15893555 64.93896484 C-23.99807835 58.83676457 -21.83048859 52.73697897 -19.66107178 46.63781738 C-18.08385039 42.20026355 -16.51154507 37.76097714 -14.93943787 33.3216095 C-13.54914792 29.39761848 -12.15588239 25.47469074 -10.76132202 21.55221558 C-10.11039327 19.72086776 -9.46018346 17.88926425 -8.81069946 16.05740356 C-7.91649375 13.53730622 -7.01855294 11.01857439 -6.11938477 8.50024414 C-5.85674332 7.75811676 -5.59410187 7.01598938 -5.32350159 6.25137329 C-3.13584279 0.14781215 -3.13584279 0.14781215 0 0 Z " fill="#A9A9A9" transform="translate(543.408447265625,463.886474609375)"/>
<path d="M0 0 C6.53292091 4.25373261 10.47036607 9.6460377 13 17 C13.63637133 21.71698297 13.58555651 26.34902553 13.48828125 31.1015625 C13.48120651 32.41917572 13.47413177 33.73678894 13.46684265 35.09432983 C13.4479338 38.56350904 13.39897933 42.031608 13.34332275 45.50036621 C13.29177656 49.05348098 13.26925397 52.60677375 13.24414062 56.16015625 C13.19083886 63.10725394 13.10304082 70.05346358 13 77 C6.07 77 -0.86 77 -8 77 C-8.495 73.04 -8.495 73.04 -9 69 C-9.495 69.7425 -9.99 70.485 -10.5 71.25 C-15.08039573 76.2884353 -21.11913832 78.67526397 -27.84765625 79.23828125 C-36.93337254 79.44803655 -45.13791387 78.27851773 -52.5 72.5625 C-59.03864333 65.86039058 -59.43560416 59.56112798 -59.33203125 50.484375 C-58.75345448 44.41272228 -56.5246683 41.10467675 -51.91015625 37.2578125 C-44.17207067 31.72871887 -36.33964007 30.63922086 -27.0625 29.875 C-26.11181641 29.78863281 -25.16113281 29.70226562 -24.18164062 29.61328125 C-18.7653391 29.14294769 -13.43596722 28.9101493 -8 29 C-8.25389158 23.17318823 -8.61116013 19.25584472 -13 15 C-17.43550431 12.78224784 -23.18567381 13.46832077 -28 14 C-30.8697962 15.34651669 -31.91191999 16.50590443 -34 19 C-34.33 19.99 -34.66 20.98 -35 22 C-41.93 22 -48.86 22 -56 22 C-54.74008734 13.18061138 -51.90638512 7.89090446 -44.96484375 2.31640625 C-32.57198787 -5.98656081 -13.07103651 -7.50415554 0 0 Z " fill="#A9AAAA" transform="translate(933,493)"/>
<path d="M0 0 C7.58322184 5.72373449 11.90642826 15.50089131 13.7265625 24.6015625 C13.7265625 30.2115625 13.7265625 35.8215625 13.7265625 41.6015625 C-3.7634375 41.6015625 -21.2534375 41.6015625 -39.2734375 41.6015625 C-37.50641149 50.4680271 -37.50641149 50.4680271 -32.2734375 56.6015625 C-27.40023192 59.69498865 -21.83439513 59.09289209 -16.2734375 58.6015625 C-12.09478469 57.08506047 -12.09478469 57.08506047 -9.1171875 53.98046875 C-6.12554415 51.74307446 -2.872606 52.51594311 0.6640625 52.8515625 C1.38013672 52.90441406 2.09621094 52.95726562 2.83398438 53.01171875 C6.21354344 53.2810812 9.47464098 53.61664632 12.7265625 54.6015625 C10.98429707 61.57062423 7.04753194 67.28443913 1.1640625 71.4140625 C-9.51617429 77.41282927 -23.83838177 78.53165439 -35.5859375 75.4765625 C-46.12161016 71.77437211 -53.46989225 64.7533743 -58.4140625 54.88671875 C-62.92545284 42.8905217 -63.291958 28.0610825 -58.53125 16.109375 C-53.5633598 6.20445106 -45.96942818 -0.86328168 -35.5703125 -4.671875 C-22.93271889 -8.66948114 -11.21239444 -6.89697115 0 0 Z " fill="#A9AAAA" transform="translate(1191.2734375,495.3984375)"/>
<path d="M0 0 C7.59 0 15.18 0 23 0 C26.375 9 26.375 9 27.7175293 13.49804688 C28.01761398 14.49848022 28.31769867 15.49891357 28.62687683 16.52966309 C28.93949966 17.58206177 29.2521225 18.63446045 29.57421875 19.71875 C29.90291458 20.81723267 30.23161041 21.91571533 30.57026672 23.04748535 C31.6119479 26.53088531 32.64978016 30.01541814 33.6875 33.5 C34.39622983 35.87247189 35.10521156 38.24486854 35.81445312 40.6171875 C37.54588485 46.41059085 39.27416416 52.20492735 41 58 C41.33733154 56.84701416 41.67466309 55.69402832 42.0222168 54.50610352 C43.29878898 50.14294976 44.57552041 45.77984261 45.85229492 41.41674805 C46.40018852 39.54436451 46.94804147 37.67196909 47.49584961 35.79956055 C50.98796486 23.86363225 54.48807613 11.93011615 58 0 C65.59 0 73.18 0 81 0 C78.12452229 9.57099782 74.96062629 19.00316606 71.61328125 28.41796875 C71.10553173 29.85184391 70.59798249 31.28579001 70.09062195 32.71980286 C69.03757113 35.69440579 67.9827603 38.6683761 66.92651367 41.6418457 C65.57202883 45.4550708 64.22111408 49.26954882 62.87136555 53.08445263 C61.82840754 56.03155005 60.78409303 58.97816523 59.73930931 61.92461586 C59.24021934 63.33235112 58.74143929 64.74019629 58.24297523 66.14815331 C57.55041934 68.10338732 56.85615658 70.05800643 56.16137695 72.01245117 C55.56991631 73.67905037 55.56991631 73.67905037 54.96650696 75.37931824 C54 78 54 78 53 80 C44.75 80 36.5 80 28 80 C21.45957433 62.41835676 15.12015669 44.77322947 8.9375 27.0625 C8.60676483 26.11708344 8.27602966 25.17166687 7.93527222 24.19760132 C6.98440067 21.47761422 6.03654743 18.75659644 5.08984375 16.03515625 C4.80693481 15.22581635 4.52402588 14.41647644 4.23254395 13.58261108 C3.96752075 12.81808624 3.70249756 12.0535614 3.42944336 11.26586914 C3.20058945 10.60800919 2.97173553 9.95014923 2.73594666 9.27235413 C1.74304401 6.2066069 0.88529546 3.09853411 0 0 Z " fill="#A8A9A9" transform="translate(1208,491)"/>
<path d="M0 0 C0 6.6 0 13.2 0 20 C-2.18625 20.0825 -4.3725 20.165 -6.625 20.25 C-13.78385774 20.76289495 -17.05999328 21.65447511 -21.8125 27.0625 C-23.80206325 30.30862952 -24.13698363 33.027252 -24.20532227 36.74682617 C-24.22526749 37.70759567 -24.24521271 38.66836517 -24.26576233 39.6582489 C-24.29083107 41.20993523 -24.29083107 41.20993523 -24.31640625 42.79296875 C-24.33718735 43.85413406 -24.35796844 44.91529938 -24.37937927 46.00862122 C-24.44481238 49.40151437 -24.50373093 52.7944855 -24.5625 56.1875 C-24.60569114 58.48633622 -24.64930562 60.78516453 -24.69335938 63.08398438 C-24.80128478 68.72257746 -24.90040502 74.36122895 -25 80 C-32.26 80 -39.52 80 -47 80 C-47 53.93 -47 27.86 -47 1 C-40.4 1 -33.8 1 -27 1 C-26.34 4.63 -25.68 8.26 -25 12 C-23.700625 10.14375 -23.700625 10.14375 -22.375 8.25 C-15.7478671 -0.38210845 -10.56550432 -0.43124507 0 0 Z " fill="#AAABAA" transform="translate(1008,490)"/>
<path d="M0 0 C4.6258085 2.97774717 7.26804203 8.02094914 8.8046875 13.1796875 C8.8459375 14.1903125 8.8871875 15.2009375 8.9296875 16.2421875 C8.97867187 16.98082031 9.02765625 17.71945312 9.078125 18.48046875 C9.38491079 26.06751741 8.29500502 33.58127009 3.5546875 39.7421875 C-1.41042814 44.47086907 -6.48173593 44.81035137 -13.12109375 44.6796875 C-16.91749686 44.11651247 -18.88115813 42.88874112 -21.66796875 40.3359375 C-25.66679396 34.36554666 -26.57406641 28.30124023 -26.5078125 21.2421875 C-26.52779297 20.48679687 -26.54777344 19.73140625 -26.56835938 18.953125 C-26.56299319 12.70688705 -24.95997236 7.29407555 -20.58740234 2.67602539 C-14.38918301 -2.70502531 -7.4550411 -3.04583391 0 0 Z " fill="#0D0D0D" transform="translate(1089.0703125,508.7578125)"/>
<path d="M0 0 C0.66 0 1.32 0 2 0 C4.71354396 5.35302002 7.4192357 10.70990687 10.11767578 16.07055664 C11.03706686 17.89423753 11.95860748 19.71683637 12.88232422 21.53833008 C14.20844903 24.15425726 15.52683562 26.7739578 16.84375 29.39453125 C17.46715271 30.61811089 17.46715271 30.61811089 18.10314941 31.8664093 C18.4835437 32.62697128 18.86393799 33.38753326 19.25585938 34.17114258 C19.59339233 34.83954666 19.93092529 35.50795074 20.27868652 36.1966095 C21 38 21 38 21 41 C8.13 41 -4.74 41 -18 41 C-19.06033972 36.75864113 -19.12225017 36.49582996 -17.19140625 32.98046875 C-16.77753662 32.2121875 -16.36366699 31.44390625 -15.93725586 30.65234375 C-15.25675171 29.43224609 -15.25675171 29.43224609 -14.5625 28.1875 C-14.10818604 27.34960938 -13.65387207 26.51171875 -13.18579102 25.6484375 C-12.25275754 23.92882467 -11.31482349 22.21186201 -10.37207031 20.49755859 C-8.72191588 17.49380773 -7.09760543 14.4768856 -5.48217773 11.4543457 C-4.80036297 10.17883105 -4.1151297 8.90513615 -3.42602539 7.63354492 C-2.06444455 5.10448626 -0.91097963 2.73293888 0 0 Z " fill="#A9AAAA" transform="translate(363,494)"/>
<path d="M0 0 C2.92502868 2.92502868 3.623433 6.57100417 4.8203125 10.4375 C5.21559647 11.6913147 5.21559647 11.6913147 5.61886597 12.97045898 C6.17479346 14.73817351 6.72770467 16.50683902 7.27783203 18.27636719 C8.12225438 20.99117287 8.97633278 23.70279249 9.83203125 26.4140625 C10.37036313 28.13002916 10.90814235 29.84616932 11.4453125 31.5625 C11.70152374 32.37710693 11.95773499 33.19171387 12.22171021 34.03100586 C14 39.76749374 14 39.76749374 14 42 C5.09 42 -3.82 42 -13 42 C-8.92405543 27.91946422 -4.63583748 13.90751243 0 0 Z " fill="#0D0E0D" transform="translate(553,488)"/>
<path d="M0 0 C3.17852316 1.64448689 5.37801764 3.75603527 7 7 C7.52071898 12.65781204 7.74744693 17.41978709 4 22 C1.09478883 25.38941303 -1.28280182 25.91632688 -5.75 26.4375 C-10.25255056 26.41253207 -12.46750375 24.51128348 -15.65234375 21.5078125 C-18.77676147 18.01208717 -18.38294716 14.26393484 -18.359375 9.7734375 C-17.80289254 5.47884463 -16.16828113 3.86654007 -13 1 C-9.03716439 -0.98141781 -4.30789762 -0.55820645 0 0 Z " fill="#ABACAC" transform="translate(1024,546)"/>
<path d="M0 0 C3.92808916 2.22344669 5.9026745 4.04763008 8.3125 7.875 C8.8075 12.33 8.8075 12.33 9.3125 16.875 C-1.9075 16.875 -13.1275 16.875 -24.6875 16.875 C-22.77535172 8.27033274 -21.97734511 4.73489674 -14.875 0 C-9.44554295 -1.91627896 -5.37684544 -1.64039352 0 0 Z " fill="#0D0D0C" transform="translate(1175.6875,506.125)"/>
<path d="M0 0 C0.34573147 5.76219112 0.34446833 10.04096075 -3 15 C-7.3909898 19.2723144 -11.93477618 21.02841578 -18 21.375 C-22.22623717 21.27765864 -24.74252504 19.7013207 -28 17 C-29.56935594 13.86128812 -29.35201103 11.46144178 -29 8 C-25.42326344 3.67026626 -22.96831845 1.99209953 -17.5 1.46484375 C-16.1696875 1.33432617 -16.1696875 1.33432617 -14.8125 1.20117188 C-13.884375 1.11416016 -12.95625 1.02714844 -12 0.9375 C-10.6078125 0.80118164 -10.6078125 0.80118164 -9.1875 0.66210938 C-2.33740602 0 -2.33740602 0 0 0 Z " fill="#0E0E0E" transform="translate(925,535)"/>
<path d="M0 0 C7.26 0 14.52 0 22 0 C23 1 23 1 23.09765625 3.06640625 C23.08605469 3.89011719 23.07445312 4.71382813 23.0625 5.5625 C23.05347656 6.38878906 23.04445313 7.21507812 23.03515625 8.06640625 C23.02355469 8.70449219 23.01195312 9.34257812 23 10 C21 7 21 7 21 2 C14.4 2 7.8 2 1 2 C1 28.07 1 54.14 1 81 C8.26 81 15.52 81 23 81 C23 81.33 23 81.66 23 82 C15.41 82 7.82 82 0 82 C0 54.94 0 27.88 0 0 Z " fill="#232424" transform="translate(960,489)"/>
<path d="M0 0 C0.66 0 1.32 0 2 0 C4.16470025 4.23074633 6.31897187 8.46657458 8.46362305 12.70751953 C9.19513104 14.15038289 9.92950052 15.59179915 10.66674805 17.03173828 C11.72414328 19.09817443 12.77123921 21.16954544 13.81640625 23.2421875 C14.14967422 23.88807831 14.4829422 24.53396912 14.8263092 25.19943237 C15.61219495 26.77041344 16.31452653 28.38267998 17 30 C16.67 30.66 16.34 31.32 16 32 C14.41524955 29.00074658 12.83246479 26.00045992 11.25 23 C10.8065625 22.16082031 10.363125 21.32164062 9.90625 20.45703125 C7.20630754 15.33508159 4.57014546 10.18833101 2 5 C1.01 5 0.02 5 -1 5 C-0.67 3.35 -0.34 1.7 0 0 Z " fill="#C0C1C1" transform="translate(363,494)"/>
<path d="M0 0 C3 1 3 1 4.16796875 3.28515625 C4.50441406 4.20167969 4.84085937 5.11820313 5.1875 6.0625 C5.53167969 6.98160156 5.87585938 7.90070312 6.23046875 8.84765625 C6.48441406 9.55792969 6.73835938 10.26820313 7 11 C6.01 11.495 6.01 11.495 5 12 C4.16180842 10.37750059 3.3295884 8.75191503 2.5 7.125 C2.0359375 6.22007812 1.571875 5.31515625 1.09375 4.3828125 C0 2 0 2 0 0 Z " fill="#181818" transform="translate(377,518)"/>
<path d="M0 0 C0.33 0 0.66 0 1 0 C1 3.63 1 7.26 1 11 C0.67 11 0.34 11 0 11 C-0.33 9.35 -0.66 7.7 -1 6 C-1.99 6 -2.98 6 -4 6 C-2.69593116 3.98079663 -1.36176581 1.98075027 0 0 Z " fill="#040404" transform="translate(924,560)"/>
<path d="M0 0 C0.66 0 1.32 0 2 0 C3.32 2.97 4.64 5.94 6 9 C5.34 9 4.68 9 4 9 C3.34 7.68 2.68 6.36 2 5 C1.01 5 0.02 5 -1 5 C-0.67 3.35 -0.34 1.7 0 0 Z " fill="#B7B8B8" transform="translate(363,494)"/>
<path d="M0 0 C0.66 0.33 1.32 0.66 2 1 C-1.465 3.97 -1.465 3.97 -5 7 C-5.66 6.67 -6.32 6.34 -7 6 C-4.69 4.02 -2.38 2.04 0 0 Z " fill="#B7B8B8" transform="translate(821,492)"/>
<path d="M0 0 C1.3921875 0.0928125 1.3921875 0.0928125 2.8125 0.1875 C2.8125 0.8475 2.8125 1.5075 2.8125 2.1875 C-1.6425 2.6825 -1.6425 2.6825 -6.1875 3.1875 C-3.1875 0.1875 -3.1875 0.1875 0 0 Z " fill="#B2B3B2" transform="translate(781.1875,489.8125)"/>
</svg>
