<?xml version="1.0" encoding="UTF-8"?>
<svg version="1.1" xmlns="http://www.w3.org/2000/svg" width="612" height="408">
<path d="M0 0 C0.99971329 -0.00145523 1.99942657 -0.00291046 3.0294342 -0.00440979 C5.14001382 -0.00275259 7.25060574 0.00878854 9.36108398 0.02954102 C12.58304485 0.05846259 15.80335608 0.05015206 19.02539062 0.03710938 C21.07943505 0.04334823 23.13347429 0.05174031 25.1875 0.0625 C26.14704086 0.05956436 27.10658173 0.05662872 28.09519958 0.05360413 C33.33336061 0.12707213 37.17694903 0.4732306 41.66015625 3.49609375 C45.20841858 9.46618592 45.93225165 16.35594619 47.09765625 23.12109375 C47.52660955 25.53528682 47.95630622 27.94934791 48.38671875 30.36328125 C48.70431152 32.16104004 48.70431152 32.16104004 49.02832031 33.99511719 C49.61284093 37.23392153 50.23091886 40.46320085 50.87109375 43.69140625 C51.05744385 44.63419434 51.24379395 45.57698242 51.43579102 46.54833984 C51.78325993 48.2943751 52.13502951 50.03956232 52.49194336 51.78369141 C53.40224916 56.41151362 54.01848717 60.75418123 53.66015625 65.49609375 C51.04360433 69.14340854 49.37120295 70.29994293 45.03515625 71.49609375 C41.66015625 71.49609375 41.66015625 71.49609375 40.1796875 70.4453125 C37.98553854 67.63071011 36.51282814 64.50826273 34.97265625 61.30859375 C34.2606499 59.85535445 33.54840373 58.40223264 32.8359375 56.94921875 C32.4745166 56.20736328 32.1130957 55.46550781 31.74072266 54.70117188 C30.39804549 51.96121251 29.02351894 49.23806991 27.6472168 46.51489258 C24.40478154 40.08856716 21.24865117 33.62278919 18.16015625 27.12109375 C17.63421875 26.02293335 17.63421875 26.02293335 17.09765625 24.90258789 C14.66015625 19.73211473 14.66015625 19.73211473 14.66015625 17.49609375 C12.35015625 17.49609375 10.04015625 17.49609375 7.66015625 17.49609375 C7.41523438 18.32496094 7.1703125 19.15382812 6.91796875 20.0078125 C5.4714663 24.01938607 3.58243667 27.57913919 1.53515625 31.30859375 C-1.74883083 37.41146542 -4.91455484 43.55490813 -7.90234375 49.80859375 C-8.24861816 50.51927002 -8.59489258 51.22994629 -8.95166016 51.9621582 C-10.59931106 55.45256547 -11.33984375 57.56564604 -11.33984375 61.49609375 C-10.39665283 61.51067627 -9.45346191 61.52525879 -8.48168945 61.5402832 C-4.96825714 61.60148981 -1.45558929 61.67566883 2.05737305 61.75854492 C3.57517246 61.79171291 5.09309281 61.81977007 6.61108398 61.8425293 C8.79853644 61.87622653 10.98488889 61.92854579 13.171875 61.984375 C14.48631592 62.01055908 15.80075684 62.03674316 17.1550293 62.0637207 C20.82338531 62.51622878 22.73033297 63.29536948 25.66015625 65.49609375 C27.2421875 67.6171875 27.2421875 67.6171875 28.47265625 69.93359375 C28.89160156 70.69542969 29.31054688 71.45726562 29.7421875 72.2421875 C30.66015625 74.49609375 30.66015625 74.49609375 30.66015625 78.49609375 C11.66421716 88.34583994 11.66421716 88.34583994 3.34765625 86.93359375 C-0.5431437 85.41684123 -3.50866776 83.50019129 -6.9140625 81.125 C-10.20426219 78.91563886 -13.65138822 77.08474521 -17.14453125 75.21875 C-21.13340002 73.06827185 -25.08048752 70.84749195 -29.02734375 68.62109375 C-29.74736572 68.21528076 -30.4673877 67.80946777 -31.20922852 67.39135742 C-32.91977935 66.42688249 -34.62986276 65.46157863 -36.33984375 64.49609375 C-36.33984375 63.83609375 -36.33984375 63.17609375 -36.33984375 62.49609375 C-37.32984375 62.49609375 -38.31984375 62.49609375 -39.33984375 62.49609375 C-40.99099321 58.2378662 -41.66375722 56.48582936 -40.21484375 52.05859375 C-39.60916115 50.86112566 -38.9833841 49.6736493 -38.33984375 48.49609375 C-37.72888527 47.27618047 -37.12095127 46.05474904 -36.515625 44.83203125 C-33.87518127 39.53959489 -31.1121814 34.31358476 -28.34301758 29.08764648 C-26.15092208 24.94764334 -23.97863548 20.80091157 -21.86328125 16.62109375 C-21.27293091 15.46855103 -21.27293091 15.46855103 -20.6706543 14.29272461 C-19.92850569 12.84249999 -19.19505054 11.38778116 -18.47192383 9.92797852 C-18.13314209 9.27112061 -17.79436035 8.6142627 -17.4453125 7.9375 C-17.15809326 7.36717041 -16.87087402 6.79684082 -16.57495117 6.20922852 C-11.99331821 -0.14564765 -7.27211703 -0.08496024 0 0 Z " fill="#9F9F9F" transform="translate(134.33984375,161.50390625)"/>
<path d="M0 0 C1.68437744 -0.62056011 3.35008418 -1.29289322 5 -2 C9.23712034 -2.35309336 12.15930201 -1.80738729 16 0 C16 0.66 16 1.32 16 2 C16.4846875 1.69964844 16.969375 1.39929688 17.46875 1.08984375 C22.85133021 -1.96373541 25.97173826 -2.58118341 32 -1 C34.9375 0.6875 34.9375 0.6875 37 3 C38.51323022 8.81647867 38.11024715 14.91027863 38.0625 20.875 C38.05798828 21.94492188 38.05347656 23.01484375 38.04882812 24.1171875 C38.03709764 26.74481589 38.01916391 29.37241531 38 32 C34.7 32 31.4 32 28 32 C27.83278531 28.37502451 27.66620299 24.7500219 27.5 21.125 C27.45230469 20.09246094 27.40460938 19.05992187 27.35546875 17.99609375 C27.31035156 17.00996094 27.26523437 16.02382812 27.21875 15.0078125 C27.17685547 14.09660645 27.13496094 13.18540039 27.09179688 12.24658203 C27.03399218 10.83190448 27 9.41585803 27 8 C25.00045254 7.95745644 22.99958364 7.95919217 21 8 C19.31699331 9.68300669 19.77190923 11.82008727 19.68359375 14.12890625 C19.64169922 15.16337891 19.59980469 16.19785156 19.55664062 17.26367188 C19.51732422 18.35228516 19.47800781 19.44089844 19.4375 20.5625 C19.39431641 21.65498047 19.35113281 22.74746094 19.30664062 23.87304688 C19.20018042 26.58186768 19.09955193 29.29091651 19 32 C15.37 32 11.74 32 8 32 C8 24.08 8 16.16 8 8 C5.69 8 3.38 8 1 8 C0.67 15.92 0.34 23.84 0 32 C-3.63 32 -7.26 32 -11 32 C-11 21.11 -11 10.22 -11 -1 C-4 -2 -4 -2 0 0 Z " fill="#9A9A9A" transform="translate(254,196)"/>
<path d="M0 0 C1.19109375 0.13535156 1.19109375 0.13535156 2.40625 0.2734375 C4.5 0.625 4.5 0.625 6.5 1.625 C6.5 2.285 6.5 2.945 6.5 3.625 C8.0159375 2.635 8.0159375 2.635 9.5625 1.625 C13.3560096 -0.52414556 16.10497605 -0.93436669 20.5 -0.375 C24.46679019 0.92183525 26.04519907 1.84595276 28.16015625 5.46875 C30.29675553 10.80058032 29.81821261 16.41504476 29.6875 22.0625 C29.66719727 23.7321582 29.66719727 23.7321582 29.64648438 25.43554688 C29.6113338 28.16557496 29.55753357 30.89535189 29.5 33.625 C25.87 33.625 22.24 33.625 18.5 33.625 C18.17 26.035 17.84 18.445 17.5 10.625 C15.19 10.295 12.88 9.965 10.5 9.625 C10.50785522 10.6622522 10.50785522 10.6622522 10.51586914 11.72045898 C10.536575 14.83446352 10.54963963 17.94845361 10.5625 21.0625 C10.57087891 22.15111328 10.57925781 23.23972656 10.58789062 24.36132812 C10.59272461 25.91303711 10.59272461 25.91303711 10.59765625 27.49609375 C10.60551147 28.93359985 10.60551147 28.93359985 10.61352539 30.40014648 C10.5 32.625 10.5 32.625 9.5 33.625 C6.2 33.625 2.9 33.625 -0.5 33.625 C-0.995 21.745 -0.995 21.745 -1.5 9.625 C-3.81 9.955 -6.12 10.285 -8.5 10.625 C-8.83 18.215 -9.16 25.805 -9.5 33.625 C-12.8 33.625 -16.1 33.625 -19.5 33.625 C-19.5 22.735 -19.5 11.845 -19.5 0.625 C-15.16666667 0.625 -10.83333333 0.625 -6.5 0.625 C-4.01458657 -0.61770671 -2.73584621 -0.32865685 0 0 Z " fill="#959595" transform="translate(315.5,194.375)"/>
<path d="M0 0 C3.63 0 7.26 0 11 0 C11 14.52 11 29.04 11 44 C6.71 44 2.42 44 -2 44 C-4.4440625 44.3403125 -4.4440625 44.3403125 -6.9375 44.6875 C-11.10303227 45.21391342 -13.48877335 44.44969301 -17 42 C-22.00239751 36.64969138 -22.71474068 31.14877145 -23 24 C-22.34101485 19.25076218 -20.54939637 16.6148007 -17.375 13.0625 C-13.2783009 10.55896166 -9.79384503 9.67485225 -5 10 C-3.35 10.66 -1.7 11.32 0 12 C0 8.04 0 4.08 0 0 Z M-10.4375 20.4375 C-12.61882844 24.01487864 -12.6699154 26.91351604 -12 31 C-11.13575439 33.59869315 -11.13575439 33.59869315 -9 35 C-5.37436186 35.33380814 -5.37436186 35.33380814 -2 35 C-0.10758464 32.16137697 1.10911299 30.06515061 0.75390625 26.59765625 C0.24330976 24.36863845 -0.32520704 22.18458153 -1 20 C-5.89379245 18.77422398 -5.89379245 18.77422398 -10.4375 20.4375 Z " fill="#9A9A9A" transform="translate(436,184)"/>
<path d="M0 0 C3.96 0 7.92 0 12 0 C12.42410156 1.21171875 12.84820312 2.4234375 13.28515625 3.671875 C13.56544678 4.47238281 13.8457373 5.27289063 14.13452148 6.09765625 C14.75854145 7.88122711 15.38173738 9.66508647 16.00415039 11.44921875 C17.65820476 16.18671618 19.32568466 20.91859523 21.0234375 25.640625 C21.3443335 26.53942383 21.66522949 27.43822266 21.99584961 28.36425781 C22.61402764 30.0945793 23.23708429 31.82316714 23.86547852 33.54980469 C24.14576904 34.33774414 24.42605957 35.12568359 24.71484375 35.9375 C24.96355225 36.62714844 25.21226074 37.31679687 25.46850586 38.02734375 C26 40 26 40 26 44 C22.7 44 19.4 44 16 44 C13 38.375 13 38.375 13 35 C8.05 35 3.1 35 -2 35 C-2.66 37.97 -3.32 40.94 -4 44 C-7.63 44 -11.26 44 -15 44 C-14.02748705 36.60890159 -11.7774628 29.7335231 -8.80273438 22.92504883 C-7.04671842 18.71392175 -5.64230409 14.36655122 -4.16210938 10.05273438 C-3.91138672 9.33021484 -3.66066406 8.60769531 -3.40234375 7.86328125 C-3.18054443 7.21657471 -2.95874512 6.56986816 -2.73022461 5.90356445 C-1.95369431 3.87928939 -0.96960702 1.93921404 0 0 Z M5 13 C4.32968281 14.9570868 3.66385317 16.91571113 3 18.875 C2.62875 19.96554688 2.2575 21.05609375 1.875 22.1796875 C0.901228 24.82620854 0.901228 24.82620854 1 27 C3.97 27 6.94 27 10 27 C9.54857225 25.22739369 9.08859477 23.4569632 8.625 21.6875 C8.24214844 20.20830078 8.24214844 20.20830078 7.8515625 18.69921875 C7.08086826 15.8194184 7.08086826 15.8194184 5 13 Z " fill="#A3A3A3" transform="translate(215,184)"/>
<path d="M0 0 C3.07762095 2.33474692 3.41021268 4.2535669 4 8 C4.07790887 9.83848168 4.10793615 11.67942827 4.09765625 13.51953125 C4.09443359 14.54111328 4.09121094 15.56269531 4.08789062 16.61523438 C4.07951172 17.67033203 4.07113281 18.72542969 4.0625 19.8125 C4.05798828 20.88693359 4.05347656 21.96136719 4.04882812 23.06835938 C4.03707729 25.71229683 4.02064787 28.35611952 4 31 C0 31 -4 31 -8 31 C-9.216875 31.20625 -10.43375 31.4125 -11.6875 31.625 C-15.88879292 32.15207129 -19.03879498 31.63108442 -23 30 C-26.10802527 27.09917642 -26.74895434 24.18409432 -27 20 C-26.4375 16.8125 -26.4375 16.8125 -25 14 C-18.83689688 10.02822243 -13.09174461 9.87980094 -6 10 C-6 9.01 -6 8.02 -6 7 C-11.05009595 6.06213918 -11.05009595 6.06213918 -16 7 C-16 7.66 -16 8.32 -16 9 C-18.97 9 -21.94 9 -25 9 C-25.37566463 5.71293449 -25.122143 4.21008596 -23.4375 1.3125 C-17.03870352 -4.75815308 -7.1697541 -4.50193862 0 0 Z M-13.75 18.5 C-15.35875 19.2425 -15.35875 19.2425 -17 20 C-17 20.66 -17 21.32 -17 22 C-14.05181084 23.51621157 -12.54643456 24.11177071 -9.25 23.4375 C-6.7456429 22.17853192 -6.7456429 22.17853192 -6.1875 19.375 C-6.125625 18.59125 -6.06375 17.8075 -6 17 C-9.54065105 17 -10.74583192 17.11346089 -13.75 18.5 Z " fill="#9B9B9B" transform="translate(374,197)"/>
<path d="M0 0 C3.22641098 2.41980824 4.067127 5.12498907 5 9 C5 11.97 5 14.94 5 18 C-5.395 18.495 -5.395 18.495 -16 19 C-13.354998 22.27333911 -13.354998 22.27333911 -10.0625 22.3125 C-7.07221854 22.21972348 -7.07221854 22.21972348 -5.0625 20.875 C-1.76726009 19.47701943 0.74568678 20.87350696 4 22 C3.72698814 25.2761423 3.20885506 26.76503806 1 29.25 C-5.21926371 32.87790383 -11.41271356 32.23754083 -18.25 30.765625 C-19.11625 30.38664062 -19.11625 30.38664062 -20 30 C-20.495 28.515 -20.495 28.515 -21 27 C-21.66 26.690625 -22.32 26.38125 -23 26.0625 C-25 25 -25 25 -25.61328125 23.3359375 C-26.1013707 20.38767999 -26.17022546 17.55099504 -26.1875 14.5625 C-26.20167969 13.45003906 -26.21585937 12.33757812 -26.23046875 11.19140625 C-26.00247902 8.03432812 -25.34441009 5.84292253 -24 3 C-23.34 3 -22.68 3 -22 3 C-21.79375 2.38125 -21.5875 1.7625 -21.375 1.125 C-16.87416572 -5.83083479 -5.87783268 -3.69073215 0 0 Z M-14.8125 6.375 C-16.1966722 7.93368783 -16.1966722 7.93368783 -16 10 C-12.37 10 -8.74 10 -5 10 C-6.57836298 6.31622777 -6.57836298 6.31622777 -8 5 C-10.92728993 4.69186422 -12.42560445 4.56425165 -14.8125 6.375 Z " fill="#959595" transform="translate(476,197)"/>
<path d="M0 0 C3.3 0 6.6 0 10 0 C12.49149886 5.97959726 14.59533727 11.67901771 16 18 C18.74844552 12.09851546 21.02989474 6.20583158 23 0 C26.3 0 29.6 0 33 0 C32.4119146 3.99898072 31.55976284 7.67806908 30.25 11.5 C29.72212891 13.04107422 29.72212891 13.04107422 29.18359375 14.61328125 C28.79300781 15.73089844 28.40242188 16.84851563 28 18 C27.67346436 18.94045166 27.67346436 18.94045166 27.34033203 19.89990234 C23.20198842 31.79801158 23.20198842 31.79801158 22 33 C20.19187276 33.15091913 18.37669383 33.22169008 16.5625 33.25 C15.57378906 33.27578125 14.58507812 33.3015625 13.56640625 33.328125 C12.71949219 33.21984375 11.87257813 33.1115625 11 33 C9.3023738 30.45356071 8.51014804 28.83247373 7.625 26 C6.49916797 22.47391694 5.25699364 19.02065248 3.9375 15.5625 C2.04377365 10.42549519 0.9373593 5.38981598 0 0 Z " fill="#979797" transform="translate(481,195)"/>
<path d="M0 0 C-0.33 2.97 -0.66 5.94 -1 9 C-2.7015625 9.2165625 -2.7015625 9.2165625 -4.4375 9.4375 C-7.80777201 9.61171478 -7.80777201 9.61171478 -9 11 C-9.14481287 12.54815405 -9.22702845 14.10228354 -9.28125 15.65625 C-9.31863281 16.59597656 -9.35601562 17.53570312 -9.39453125 18.50390625 C-9.42933594 19.49261719 -9.46414063 20.48132813 -9.5 21.5 C-9.56857628 23.4480743 -9.64126787 25.39600959 -9.71875 27.34375 C-9.76418945 28.64602539 -9.76418945 28.64602539 -9.81054688 29.97460938 C-10 32 -10 32 -11 33 C-14.3 33 -17.6 33 -21 33 C-21 22.11 -21 11.22 -21 0 C-16.66666667 0 -12.33333333 0 -8 0 C-4.71023192 -1.09658936 -3.28696233 -0.79953138 0 0 Z " fill="#959595" transform="translate(403,195)"/>
<path d="M0 0 C2.68993053 -0.30378052 2.68993053 -0.30378052 5 -1 C6.0625 0.875 6.0625 0.875 7 3 C6.67 3.66 6.34 4.32 6 5 C6.99 5 7.98 5 9 5 C8.67 5.99 8.34 6.98 8 8 C5.69 8 3.38 8 1 8 C0.67 15.92 0.34 23.84 0 32 C-3.63 32 -7.26 32 -11 32 C-11 21.11 -11 10.22 -11 -1 C-3.8028169 -2.02816901 -3.8028169 -2.02816901 0 0 Z " fill="#969696" transform="translate(254,196)"/>
<path d="M0 0 C3.96 0 7.92 0 12 0 C12.8655047 2.26708325 13.71759315 4.53775079 14.5625 6.8125 C14.80935547 7.45509766 15.05621094 8.09769531 15.31054688 8.75976562 C17.11328125 13.66015625 17.11328125 13.66015625 16 17 C15.34 17.33 14.68 17.66 14 18 C13.67 18.99 13.34 19.98 13 21 C12.01 20.67 11.02 20.34 10 20 C10 21.98 10 23.96 10 26 C7.81024227 22.71536341 7.00193437 19.79303725 6 16 C5.3503125 17.4540625 5.3503125 17.4540625 4.6875 18.9375 C3 22 3 22 0 23 C-0.33 22.01 -0.66 21.02 -1 20 C-1.66 20 -2.32 20 -3 20 C-3 19.34 -3 18.68 -3 18 C-2.34 18 -1.68 18 -1 18 C-1 15.69 -1 13.38 -1 11 C-1.99 12.485 -1.99 12.485 -3 14 C-3.98095748 15.01868662 -4.97702078 16.02351983 -6 17 C-5.34496718 12.94180817 -4.05440879 9.46028718 -2.4375 5.6875 C-1.75494141 4.08455078 -1.75494141 4.08455078 -1.05859375 2.44921875 C-0.53458984 1.23685547 -0.53458984 1.23685547 0 0 Z " fill="#9A9A9A" transform="translate(215,184)"/>
<path d="M0 0 C2.31 0 4.62 0 7 0 C7.103125 0.94875 7.20625 1.8975 7.3125 2.875 C7.68539295 6.29107501 7.68539295 6.29107501 11 8 C10.67 8.33 10.34 8.66 10 9 C9.84259395 10.70563778 9.74906608 12.41727244 9.68359375 14.12890625 C9.64169922 15.16337891 9.59980469 16.19785156 9.55664062 17.26367188 C9.51732422 18.35228516 9.47800781 19.44089844 9.4375 20.5625 C9.39431641 21.65498047 9.35113281 22.74746094 9.30664062 23.87304688 C9.20017932 26.58189564 9.09816484 29.29083992 9 32 C6.03 32 3.06 32 0 32 C0 21.44 0 10.88 0 0 Z " fill="#A6A6A6" transform="translate(297,196)"/>
<path d="M0 0 C1.80789592 3.60270264 2.24002118 6.51810421 2.1953125 10.51953125 C2.18564453 12.0519043 2.18564453 12.0519043 2.17578125 13.61523438 C2.15902344 14.67033203 2.14226562 15.72542969 2.125 16.8125 C2.11597656 17.88693359 2.10695313 18.96136719 2.09765625 20.06835938 C2.07415424 22.71233552 2.03828517 25.3561966 2 28 C-1.3 28 -4.6 28 -8 28 C-8.2225675 24.62539543 -8.42850513 21.25113917 -8.625 17.875 C-8.68945312 16.92367187 -8.75390625 15.97234375 -8.8203125 14.9921875 C-9.10215668 9.91899218 -9.29441168 5.68758943 -7 1 C-2.81395349 -1.40697674 -2.81395349 -1.40697674 0 0 Z " fill="#A2A2A2" transform="translate(290,200)"/>
<path d="M0 0 C0.66 0 1.32 0 2 0 C3.15416506 2.05821081 4.29835847 4.12099472 5.4375 6.1875 C6.07558594 7.33605469 6.71367187 8.48460937 7.37109375 9.66796875 C9 13 9 13 10 18 C4.39 18 -1.22 18 -7 18 C-7 12.60607942 -6.09297444 10.77150838 -3.5 6.1875 C-3.16613281 5.59001953 -2.83226562 4.99253906 -2.48828125 4.37695312 C-1.66827367 2.91265388 -0.83540688 1.45556863 0 0 Z " fill="#999999" transform="translate(144,196)"/>
<path d="M0 0 C2.3125 1.3125 2.3125 1.3125 4.3125 3.3125 C3.73557692 9.88942308 3.73557692 9.88942308 2.3125 11.3125 C-3.42361111 11.58564815 -3.42361111 11.58564815 -5.6875 11.3125 C-7.6875 9.3125 -7.6875 9.3125 -8.125 5.875 C-7.6875 2.3125 -7.6875 2.3125 -5.5 0.25 C-2.6875 -0.6875 -2.6875 -0.6875 0 0 Z " fill="#909090" transform="translate(407.6875,216.6875)"/>
<path d="M0 0 C3.3 0 6.6 0 10 0 C12.43425238 4.96993194 13.34615998 8.34605369 13 14 C12.67 13.34 12.34 12.68 12 12 C10.67511887 11.63451555 9.33981486 11.3062434 8 11 C4.59792959 9.65979044 2.8858961 8.14316016 1 5 C0.3125 2.25 0.3125 2.25 0 0 Z M6 6 C6 6.66 6 7.32 6 8 C6.66 7.67 7.32 7.34 8 7 C7.34 6.67 6.68 6.34 6 6 Z " fill="#9F9F9F" transform="translate(481,195)"/>
<path d="M0 0 C2 3 2 3 1.625 6.1875 C1.41875 7.115625 1.2125 8.04375 1 9 C1.99 9 2.98 9 4 9 C4.66 8.34 5.32 7.68 6 7 C8.33760758 10.71267087 7.9611085 11.19445748 7 16 C3.37 16 -0.26 16 -4 16 C-3.27275406 10.47293087 -1.66554027 5.30039859 0 0 Z " fill="#9A9A9A" transform="translate(204,212)"/>
<path d="M0 0 C1.134375 0.020625 2.26875 0.04125 3.4375 0.0625 C4.1875 1.8125 4.1875 1.8125 4.4375 4.0625 C2.24978945 7.12529477 0.87635938 7.96122476 -2.8125 8.8125 C-4.17375 8.93625 -4.17375 8.93625 -5.5625 9.0625 C-4.56445312 0.08007812 -4.56445312 0.08007812 0 0 Z " fill="#9D9D9D" transform="translate(475.5625,217.9375)"/>
<path d="M0 0 C1.9451 2.91765 2.45276317 4.62537285 3 8 C2.01 8.33 1.02 8.66 0 9 C-0.33 9.99 -0.66 10.98 -1 12 C-1.99 11.67 -2.98 11.34 -4 11 C-4 12.98 -4 14.96 -4 17 C-6.00293347 13.99559979 -6.49271626 12.29006055 -7.125 8.8125 C-7.29257813 7.91144531 -7.46015625 7.01039063 -7.6328125 6.08203125 C-7.75398437 5.39496094 -7.87515625 4.70789063 -8 4 C-7.67 4.66 -7.34 5.32 -7 6 C-6.01 5.34 -5.02 4.68 -4 4 C-3.01 4 -2.02 4 -1 4 C-0.67 2.68 -0.34 1.36 0 0 Z " fill="#868686" transform="translate(229,193)"/>
<path d="M0 0 C0 0.33 0 0.66 0 1 C-1.3303125 1.433125 -1.3303125 1.433125 -2.6875 1.875 C-6.21863431 3.07425316 -9.6628504 4.3314252 -13 6 C-13 4.68 -13 3.36 -13 2 C-15.31 2 -17.62 2 -20 2 C-20 12.56 -20 23.12 -20 34 C-20.33 34 -20.66 34 -21 34 C-21 23.11 -21 12.22 -21 1 C-16.66666667 1 -12.33333333 1 -8 1 C-5.29120665 -0.35439668 -2.99066732 -0.06501451 0 0 Z " fill="#606060" transform="translate(317,194)"/>
<path d="M0 0 C0.99 0.495 0.99 0.495 2 1 C3.67654729 0.72057545 5.34608154 0.39171753 7 0 C8.0625 1.875 8.0625 1.875 9 4 C8.67 4.66 8.34 5.32 8 6 C8.99 6 9.98 6 11 6 C10.67 6.99 10.34 7.98 10 9 C7.69 9 5.38 9 3 9 C2.67 9.66 2.34 10.32 2 11 C1.855625 10.030625 1.71125 9.06125 1.5625 8.0625 C1.32437659 5.13513227 1.32437659 5.13513227 0 4 C0 2.68 0 1.36 0 0 Z " fill="#8B8B8B" transform="translate(252,195)"/>
<path d="M0 0 C0.66 0.33 1.32 0.66 2 1 C2 7.93 2 14.86 2 22 C-0.97 22 -3.94 22 -7 22 C-7 21.34 -7 20.68 -7 20 C-4.69 20 -2.38 20 0 20 C-0.05329468 19.14450562 -0.05329468 19.14450562 -0.10766602 18.27172852 C-0.26470077 15.70228336 -0.41370463 13.13243488 -0.5625 10.5625 C-0.61857422 9.66466797 -0.67464844 8.76683594 -0.73242188 7.84179688 C-0.78076172 6.98779297 -0.82910156 6.13378906 -0.87890625 5.25390625 C-0.94960327 4.06776733 -0.94960327 4.06776733 -1.02172852 2.85766602 C-1 1 -1 1 0 0 Z " fill="#B0B0B0" transform="translate(323,206)"/>
<path d="M0 0 C0.33 0 0.66 0 1 0 C1 10.23 1 20.46 1 31 C0.67 31 0.34 31 0 31 C0 29.02 0 27.04 0 25 C-3.54518884 26.39759905 -3.54518884 26.39759905 -7 28 C-5.125 23.25 -5.125 23.25 -4 21 C-3.01 21 -2.02 21 -1 21 C-0.67 14.07 -0.34 7.14 0 0 Z " fill="#636363" transform="translate(446,197)"/>
<path d="M0 0 C0.66 0.33 1.32 0.66 2 1 C2 7.6 2 14.2 2 21 C-0.97 21 -3.94 21 -7 21 C-7 20.34 -7 19.68 -7 19 C-4.69 19 -2.38 19 0 19 C0 12.73 0 6.46 0 0 Z " fill="#B4B4B4" transform="translate(304,207)"/>
<path d="M0 0 C1.32 0 2.64 0 4 0 C4 1.98 4 3.96 4 6 C1.03 6 -1.94 6 -5 6 C-5 5.01 -5 4.02 -5 3 C-6.32 3 -7.64 3 -9 3 C-8.67 2.34 -8.34 1.68 -8 1 C-5.66666667 1 -3.33333333 1 -1 1 C-0.67 0.67 -0.34 0.34 0 0 Z " fill="#AEAEAE" transform="translate(442,222)"/>
<path d="M0 0 C0.99 0.33 1.98 0.66 3 1 C3 2.65 3 4.3 3 6 C-0.63 6 -4.26 6 -8 6 C-8 5.01 -8 4.02 -8 3 C-6.576875 3.0928125 -6.576875 3.0928125 -5.125 3.1875 C-3.578125 3.0946875 -3.578125 3.0946875 -2 3 C-1.34 2.01 -0.68 1.02 0 0 Z " fill="#ABABAB" transform="translate(500,222)"/>
<path d="M0 0 C0.99 0 1.98 0 3 0 C3.66 1.65 4.32 3.3 5 5 C2 7 2 7 -0.0625 6.75 C-2 6 -2 6 -4 4 C-2.68 3.34 -1.36 2.68 0 2 C0 1.34 0 0.68 0 0 Z " fill="#AAAAAA" transform="translate(358,221)"/>
<path d="M0 0 C0.99 0.66 1.98 1.32 3 2 C1.33333333 3.66666667 -0.33333333 5.33333333 -2 7 C-1.01 8.485 -1.01 8.485 0 10 C-1.65 9.67 -3.3 9.34 -5 9 C-5.33 8.01 -5.66 7.02 -6 6 C-4 4 -2 2 0 0 Z " fill="#929292" transform="translate(358,219)"/>
<path d="M0 0 C0.33 1.98 0.66 3.96 1 6 C0.34 6 -0.32 6 -1 6 C-1.33 4.35 -1.66 2.7 -2 1 C-6.62 1 -11.24 1 -16 1 C-16 0.67 -16 0.34 -16 0 C-14.08416353 -0.1958009 -12.16727461 -0.38132214 -10.25 -0.5625 C-8.64898437 -0.71912109 -8.64898437 -0.71912109 -7.015625 -0.87890625 C-4.35858796 -0.98560074 -2.50039428 -0.81930395 0 0 Z " fill="#777777" transform="translate(230,218)"/>
<path d="M0 0 C0.66 0 1.32 0 2 0 C6 6.75 6 6.75 6 9 C4.68 8.34 3.36 7.68 2 7 C2 6.01 2 5.02 2 4 C1.34 4 0.68 4 0 4 C0 4.66 0 5.32 0 6 C-0.99 6.33 -1.98 6.66 -3 7 C-1.125 2.25 -1.125 2.25 0 0 Z " fill="#737373" transform="translate(144,196)"/>
<path d="M0 0 C0 0.33 0 0.66 0 1 C-1.3303125 1.433125 -1.3303125 1.433125 -2.6875 1.875 C-6.21863431 3.07425316 -9.6628504 4.3314252 -13 6 C-13 4.68 -13 3.36 -13 2 C-15.31 2 -17.62 2 -20 2 C-20 1.67 -20 1.34 -20 1 C-16 1 -12 1 -8 1 C-5.29120665 -0.35439668 -2.99066732 -0.06501451 0 0 Z " fill="#747474" transform="translate(317,194)"/>
<path d="M0 0 C1.42970811 4.28912434 0.49708346 7.79092243 -1 12 C-3.125 14.0625 -3.125 14.0625 -5 15 C-4.37321829 11.33827525 -3.35548154 8.1181005 -1.9375 4.6875 C-1.39416016 3.36298828 -1.39416016 3.36298828 -0.83984375 2.01171875 C-0.56269531 1.34785156 -0.28554687 0.68398437 0 0 Z " fill="#7A7A7A" transform="translate(214,186)"/>
<path d="M0 0 C2.86724686 0.57344937 3.8614515 0.8614515 6 3 C5.625 5.125 5.625 5.125 5 7 C4.34 6.01 3.68 5.02 3 4 C1.02 4.99 1.02 4.99 -1 6 C-1.33 4.68 -1.66 3.36 -2 2 C-1.34 2 -0.68 2 0 2 C0 1.34 0 0.68 0 0 Z " fill="#878787" transform="translate(285,196)"/>
<path d="M0 0 C0.66 0 1.32 0 2 0 C2 1.32 2 2.64 2 4 C4.97 4.495 4.97 4.495 8 5 C8 5.33 8 5.66 8 6 C5.03 6 2.06 6 -1 6 C-1.042721 4.33388095 -1.04063832 2.66617115 -1 1 C-0.67 0.67 -0.34 0.34 0 0 Z " fill="#7C7C7C" transform="translate(350,200)"/>
<path d="M0 0 C-3.44450737 2.29633824 -5.93812283 2.54016485 -10 3 C-4.375 -1.3125 -4.375 -1.3125 0 0 Z " fill="#818181" transform="translate(152,245)"/>
<path d="M0 0 C1.32 0 2.64 0 4 0 C3 3 3 3 2 4 C0.33382885 4.04063832 -1.33388095 4.042721 -3 4 C-1.75 2 -1.75 2 0 0 Z " fill="#A7A7A7" transform="translate(442,222)"/>
<path d="M0 0 C0.66 0 1.32 0 2 0 C1.32829194 3.8063457 0.27253436 7.35206816 -1 11 C-2.60080151 6.99799622 -1.29279692 3.95443764 0 0 Z " fill="#727272" transform="translate(505,216)"/>
<path d="M0 0 C2 3 2 3 1.625 6.1875 C1.41875 7.115625 1.2125 8.04375 1 9 C0.01 9.33 -0.98 9.66 -2 10 C-1.33333333 6.66666667 -0.66666667 3.33333333 0 0 Z " fill="#737373" transform="translate(204,212)"/>
<path d="M0 0 C0.66 0 1.32 0 2 0 C2.33 2.31 2.66 4.62 3 7 C2.34 7 1.68 7 1 7 C0.67 6.34 0.34 5.68 0 5 C-0.66 4.67 -1.32 4.34 -2 4 C-1.34 2.68 -0.68 1.36 0 0 Z " fill="#AAAAAA" transform="translate(179,190)"/>
<path d="M0 0 C2.6855594 2.6855594 3.06049974 5.37621328 4 9 C1.525 8.01 1.525 8.01 -1 7 C-0.67 4.69 -0.34 2.38 0 0 Z " fill="#747474" transform="translate(232,202)"/>
<path d="M0 0 C0.66 0 1.32 0 2 0 C2.33 1.32 2.66 2.64 3 4 C1.02 4.66 -0.96 5.32 -3 6 C-2.67 4.68 -2.34 3.36 -2 2 C-1.34 2 -0.68 2 0 2 C0 1.34 0 0.68 0 0 Z " fill="#A8A8A8" transform="translate(144,200)"/>
<path d="M0 0 C0.66 0.33 1.32 0.66 2 1 C1.3125 3.4375 1.3125 3.4375 0 6 C-2.625 6.8125 -2.625 6.8125 -5 7 C-4.67 6.01 -4.34 5.02 -4 4 C-3.34 4 -2.68 4 -2 4 C-1.34 2.68 -0.68 1.36 0 0 Z " fill="#656565" transform="translate(456,196)"/>
</svg>
